<?xml version="1.0" encoding="utf-8"?>
<svg width="131px" height="41px" viewBox="0 0 131 41" version="1.1" xmlns:xlink="http://www.w3.org/1999/xlink" xmlns="http://www.w3.org/2000/svg">
  <defs>
    <path d="M0 0L131 0L131 41L0 41L0 0Z" id="path_1" />
    <clipPath id="clip_1">
      <use xlink:href="#path_1" clip-rule="evenodd" fill-rule="evenodd" transform="translate(0, -1.7695312)" />
    </clipPath>
  </defs>
  <g id="Baine-UI-2" clip-path="url(#clip_1)" transform="translate(0 1.7695312)">
    <g transform="translate(11.666992, 0)" id="Baine-UI" fill="#FFFFFF">
      <path d="M0 29.8047L0 8.75Q0 7.72461 0.717773 7.00684Q1.43555 6.28906 2.46094 6.28906L11.0742 6.28906Q14.6973 6.28906 16.6113 7.79297Q18.5254 9.43359 18.5254 12.2363Q18.5254 14.0137 17.7734 15.2441Q17.0215 16.4063 15.6543 17.0898Q17.4316 17.8418 18.3887 19.209Q19.2773 20.5078 19.2773 22.627Q19.2773 26.0449 17.0898 27.959Q14.834 29.8047 10.7324 29.8047L0 29.8047ZM4.64844 15.3809L10.1855 15.3809Q11.9629 15.3809 12.7832 14.7656Q13.6035 14.1504 13.6035 12.8516Q13.6035 11.5527 12.7832 10.9375Q12.0996 10.3906 10.1172 10.3906L4.64844 10.3906L4.64844 15.3809ZM4.64844 25.5664L10.3906 25.5664Q12.3047 25.5664 13.3301 24.8145Q14.2871 24.1309 14.2871 22.4902Q14.2871 20.8496 13.3301 20.0977Q12.4414 19.4141 10.3223 19.4141L4.64844 19.4141L4.64844 25.5664ZM30.7617 20.6445Q29.8047 21.123 28.0957 21.5332Q26.5234 21.875 26.5234 21.875Q25.293 22.2168 24.7461 22.7637Q24.2676 23.5156 24.2676 24.2676Q24.2676 25.293 24.8828 25.9082Q25.498 26.4551 26.6602 26.4551Q28.5742 26.4551 29.668 25.3613Q30.7617 24.2676 30.7617 22.3535L30.7617 20.6445ZM31.8555 29.0527Q30.4199 29.8047 28.8135 29.9756Q27.207 30.1465 25.9766 30.1465Q23.5156 30.1465 21.6699 28.8135Q19.8242 27.4805 19.8242 24.4043Q19.8242 21.5332 21.499 20.3027Q23.1738 19.0723 25.7715 18.6621Q26.1133 18.6621 26.5918 18.5596Q27.0703 18.457 27.6855 18.3887Q30.6934 17.9785 30.6934 16.6113Q30.6934 15.5859 29.6338 15.2783Q28.5742 14.9707 27.6855 14.9707Q26.7285 14.9707 25.9766 15.2441Q25.2246 15.5176 24.8828 16.2695L20.3027 16.2695Q20.5762 14.1504 22.2168 12.7832Q24.0625 11.2109 27.4805 11.2109Q31.3086 11.2109 33.2227 12.5098Q35.2051 13.877 35.2051 16.3379L35.2051 22.5586Q35.2051 25.293 34.2139 26.8311Q33.2227 28.3691 31.8555 29.0527ZM36.2988 11.6211L38.7598 11.6211Q39.7168 11.6211 40.4004 12.3047Q41.084 12.9883 41.084 13.9453L41.084 29.8047L36.2988 29.8047L36.2988 11.6211ZM36.2988 6.28906L38.7598 6.28906Q39.7168 6.28906 40.4004 6.97266Q41.084 7.65625 41.084 8.61328L41.084 10.0488L36.2988 10.0488L36.2988 6.28906ZM57.1484 29.8047L54.7559 29.8047Q53.7305 29.8047 53.0811 29.1553Q52.4316 28.5059 52.4316 27.4805L52.4316 18.1836Q52.4316 16.543 51.4404 15.791Q50.4492 15.0391 49.2188 15.0391Q47.9883 15.0391 47.0313 15.791Q46.0742 16.543 46.0742 18.1836L46.0742 29.8047L41.2891 29.8047L41.2891 19.1406Q41.2891 14.4922 43.7158 12.9199Q46.1426 11.3477 49.082 11.2109Q52.0898 11.2109 54.6191 12.7832Q57.1484 14.3555 57.1484 19.1406L57.1484 29.8047ZM70.5469 24.1992L73.9648 24.1992Q73.2129 27.0703 71.0938 28.5742Q68.9746 30.1465 65.7617 30.1465Q61.8652 30.1465 59.6777 27.6172Q57.4902 25.1563 57.4902 20.5762Q57.4902 16.2012 59.6094 13.7402Q61.7969 11.2109 65.6934 11.2109Q69.7949 11.2109 72.0508 13.6719Q74.2383 16.2012 74.2383 20.7129Q74.2383 20.9863 74.2383 21.1914Q74.2383 21.3965 74.2383 21.4648Q74.2383 21.8066 74.1699 21.9434L62.3438 21.9434Q62.4121 24.0625 63.3691 25.0879Q64.2578 26.1816 66.0352 26.1816Q67.1973 26.1816 68.0176 25.7031Q68.2227 25.6348 68.3936 25.4639Q68.5645 25.293 68.7695 25.0879Q68.8379 24.8828 69.2822 24.541Q69.7266 24.1992 70.5469 24.1992ZM62.3438 18.8672L69.3164 18.8672Q69.1797 17.0215 68.3594 16.1328Q67.4707 15.1758 65.8301 15.1758Q64.3262 15.1758 63.3691 16.1328Q62.4121 17.0898 62.3438 18.8672ZM87.7734 6.2207L87.7734 20.918Q87.7734 23.6523 88.7988 24.9512Q89.8926 26.1816 92.2852 26.1816Q94.6094 26.1816 95.7715 24.9512Q96.8652 23.7207 96.8652 20.918L96.8652 6.2207L101.719 6.2207L101.719 21.4648Q101.719 25.8398 99.2578 28.0957Q97.002 30.3516 92.2852 30.3516Q87.5684 30.3516 85.3125 28.0957Q82.8516 25.8398 82.8516 21.4648L82.8516 8.81836Q82.8516 7.79297 83.5693 7.00684Q84.2871 6.2207 85.3125 6.2207L87.7734 6.2207ZM102.607 29.8047L102.607 8.75Q102.607 7.72461 103.325 7.00684Q104.043 6.28906 105.068 6.28906L107.461 6.28906L107.461 29.8047L102.607 29.8047Z" />
    </g>
  </g>
</svg>