<?xml version="1.0" encoding="utf-8"?>
<svg width="89px" height="27px" viewBox="0 0 89 27" version="1.1" xmlns:xlink="http://www.w3.org/1999/xlink" xmlns="http://www.w3.org/2000/svg">
  <defs>
    <path d="M0 0L89 0L89 27L0 27L0 0Z" id="path_1" />
    <clipPath id="clip_1">
      <use xlink:href="#path_1" clip-rule="evenodd" fill-rule="evenodd" transform="translate(0, -0.12109375)" />
    </clipPath>
  </defs>
  <g id="Baine-UI" clip-path="url(#clip_1)" transform="translate(0 0.12109375)">
    <g transform="translate(6.0478516, 0)" id="Baine-UI">
      <path d="M0 21.2891L0 6.25Q0 5.51758 0.512695 5.00488Q1.02539 4.49219 1.75781 4.49219L7.91016 4.49219Q10.498 4.49219 11.8652 5.56641Q13.2324 6.73828 13.2324 8.74023Q13.2324 10.0098 12.6953 10.8887Q12.1582 11.7188 11.1816 12.207Q12.4512 12.7441 13.1348 13.7207Q13.7695 14.6484 13.7695 16.1621Q13.7695 18.6035 12.207 19.9707Q10.5957 21.2891 7.66602 21.2891L0 21.2891ZM3.32031 10.9863L7.27539 10.9863Q8.54492 10.9863 9.13086 10.5469Q9.7168 10.1074 9.7168 9.17969Q9.7168 8.25195 9.13086 7.8125Q8.64258 7.42188 7.22656 7.42188L3.32031 7.42188L3.32031 10.9863ZM3.32031 18.2617L7.42188 18.2617Q8.78906 18.2617 9.52148 17.7246Q10.2051 17.2363 10.2051 16.0645Q10.2051 14.8926 9.52148 14.3555Q8.88672 13.8672 7.37305 13.8672L3.32031 13.8672L3.32031 18.2617ZM21.9727 14.7461Q21.2891 15.0879 20.0684 15.3809Q18.9453 15.625 18.9453 15.625Q18.0664 15.8691 17.6758 16.2598Q17.334 16.7969 17.334 17.334Q17.334 18.0664 17.7734 18.5059Q18.2129 18.8965 19.043 18.8965Q20.4102 18.8965 21.1914 18.1152Q21.9727 17.334 21.9727 15.9668L21.9727 14.7461ZM22.7539 20.752Q21.7285 21.2891 20.5811 21.4111Q19.4336 21.5332 18.5547 21.5332Q16.7969 21.5332 15.4785 20.5811Q14.1602 19.6289 14.1602 17.4316Q14.1602 15.3809 15.3564 14.502Q16.5527 13.623 18.4082 13.3301Q18.6523 13.3301 18.9941 13.2568Q19.3359 13.1836 19.7754 13.1348Q21.9238 12.8418 21.9238 11.8652Q21.9238 11.1328 21.167 10.9131Q20.4102 10.6934 19.7754 10.6934Q19.0918 10.6934 18.5547 10.8887Q18.0176 11.084 17.7734 11.6211L14.502 11.6211Q14.6973 10.1074 15.8691 9.13086Q17.1875 8.00781 19.6289 8.00781Q22.3633 8.00781 23.7305 8.93555Q25.1465 9.91211 25.1465 11.6699L25.1465 16.1133Q25.1465 18.0664 24.4385 19.165Q23.7305 20.2637 22.7539 20.752ZM25.9277 8.30078L27.6855 8.30078Q28.3691 8.30078 28.8574 8.78906Q29.3457 9.27735 29.3457 9.96094L29.3457 21.2891L25.9277 21.2891L25.9277 8.30078ZM25.9277 4.49219L27.6855 4.49219Q28.3691 4.49219 28.8574 4.98047Q29.3457 5.46875 29.3457 6.15234L29.3457 7.17773L25.9277 7.17773L25.9277 4.49219ZM40.8203 21.2891L39.1113 21.2891Q38.3789 21.2891 37.915 20.8252Q37.4512 20.3613 37.4512 19.6289L37.4512 12.9883Q37.4512 11.8164 36.7432 11.2793Q36.0352 10.7422 35.1563 10.7422Q34.2773 10.7422 33.5938 11.2793Q32.9102 11.8164 32.9102 12.9883L32.9102 21.2891L29.4922 21.2891L29.4922 13.6719Q29.4922 10.3516 31.2256 9.22852Q32.959 8.10547 35.0586 8.00781Q37.207 8.00781 39.0137 9.13086Q40.8203 10.2539 40.8203 13.6719L40.8203 21.2891ZM50.3906 17.2852L52.832 17.2852Q52.2949 19.3359 50.7813 20.4102Q49.2676 21.5332 46.9727 21.5332Q44.1895 21.5332 42.627 19.7266Q41.0645 17.9688 41.0645 14.6973Q41.0645 11.5723 42.5781 9.81445Q44.1406 8.00781 46.9238 8.00781Q49.8535 8.00781 51.4648 9.76563Q53.0273 11.5723 53.0273 14.7949Q53.0273 14.9902 53.0273 15.1367Q53.0273 15.2832 53.0273 15.332Q53.0273 15.5762 52.9785 15.6738L44.5313 15.6738Q44.5801 17.1875 45.2637 17.9199Q45.8984 18.7012 47.168 18.7012Q47.998 18.7012 48.584 18.3594Q48.7305 18.3105 48.8525 18.1885Q48.9746 18.0664 49.1211 17.9199Q49.1699 17.7734 49.4873 17.5293Q49.8047 17.2852 50.3906 17.2852ZM44.5313 13.4766L49.5117 13.4766Q49.4141 12.1582 48.8281 11.5234Q48.1934 10.8398 47.0215 10.8398Q45.9473 10.8398 45.2637 11.5234Q44.5801 12.207 44.5313 13.4766ZM62.6953 4.44336L62.6953 14.9414Q62.6953 16.8945 63.4277 17.8223Q64.209 18.7012 65.918 18.7012Q67.5781 18.7012 68.4082 17.8223Q69.1895 16.9434 69.1895 14.9414L69.1895 4.44336L72.6563 4.44336L72.6563 15.332Q72.6563 18.457 70.8984 20.0684Q69.2871 21.6797 65.918 21.6797Q62.5488 21.6797 60.9375 20.0684Q59.1797 18.457 59.1797 15.332L59.1797 6.29883Q59.1797 5.56641 59.6924 5.00488Q60.2051 4.44336 60.9375 4.44336L62.6953 4.44336ZM73.291 21.2891L73.291 6.25Q73.291 5.51758 73.8037 5.00488Q74.3164 4.49219 75.0488 4.49219L76.7578 4.49219L76.7578 21.2891L73.291 21.2891Z" />
    </g>
  </g>
</svg>