<?xml version="1.0" encoding="utf-8"?>
<svg width="131px" height="41px" viewBox="0 0 131 41" version="1.1" xmlns:xlink="http://www.w3.org/1999/xlink" xmlns="http://www.w3.org/2000/svg">
  <defs>
    <path d="M0 0L131 0L131 41L0 41L0 0Z" id="path_1" />
    <clipPath id="clip_1">
      <use xlink:href="#path_1" clip-rule="evenodd" fill-rule="evenodd" transform="translate(0, 0.90625)" />
    </clipPath>
  </defs>
  <g id="Baine-UI-2" clip-path="url(#clip_1)" transform="translate(0 -0.90625)">
    <g transform="translate(3.9765625, 0)" id="Baine-UI" fill="#FFFFFF">
      <path d="M0 34.0625L0 10Q0 8.82813 0.820313 8.00781Q1.64063 7.1875 2.8125 7.1875L12.6563 7.1875Q16.7969 7.1875 18.9844 8.90625Q21.1719 10.7813 21.1719 13.9844Q21.1719 16.0156 20.3125 17.4219Q19.4531 18.75 17.8906 19.5313Q19.9219 20.3906 21.0156 21.9531Q22.0313 23.4375 22.0313 25.8594Q22.0313 29.7656 19.5313 31.9531Q16.9531 34.0625 12.2656 34.0625L0 34.0625ZM5.3125 17.5781L11.6406 17.5781Q13.6719 17.5781 14.6094 16.875Q15.5469 16.1719 15.5469 14.6875Q15.5469 13.2031 14.6094 12.5Q13.8281 11.875 11.5625 11.875L5.3125 11.875L5.3125 17.5781ZM5.3125 29.2188L11.875 29.2188Q14.0625 29.2188 15.2344 28.3594Q16.3281 27.5781 16.3281 25.7031Q16.3281 23.8281 15.2344 22.9688Q14.2188 22.1875 11.7969 22.1875L5.3125 22.1875L5.3125 29.2188ZM35.1563 23.5938Q34.0625 24.1406 32.1094 24.6094Q30.3125 25 30.3125 25Q28.9063 25.3906 28.2813 26.0156Q27.7344 26.875 27.7344 27.7344Q27.7344 28.9063 28.4375 29.6094Q29.1406 30.2344 30.4688 30.2344Q32.6563 30.2344 33.9063 28.9844Q35.1563 27.7344 35.1563 25.5469L35.1563 23.5938ZM36.4063 33.2031Q34.7656 34.0625 32.9297 34.2578Q31.0938 34.4531 29.6875 34.4531Q26.875 34.4531 24.7656 32.9297Q22.6563 31.4063 22.6563 27.8906Q22.6563 24.6094 24.5703 23.2031Q26.4844 21.7969 29.4531 21.3281Q29.8438 21.3281 30.3906 21.2109Q30.9375 21.0938 31.6406 21.0156Q35.0781 20.5469 35.0781 18.9844Q35.0781 17.8125 33.8672 17.4609Q32.6563 17.1094 31.6406 17.1094Q30.5469 17.1094 29.6875 17.4219Q28.8281 17.7344 28.4375 18.5938L23.2031 18.5938Q23.5156 16.1719 25.3906 14.6094Q27.5 12.8125 31.4063 12.8125Q35.7813 12.8125 37.9688 14.2969Q40.2344 15.8594 40.2344 18.6719L40.2344 25.7813Q40.2344 28.9063 39.1016 30.6641Q37.9688 32.4219 36.4063 33.2031ZM41.4844 13.2813L44.2969 13.2813Q45.3906 13.2813 46.1719 14.0625Q46.9531 14.8438 46.9531 15.9375L46.9531 34.0625L41.4844 34.0625L41.4844 13.2813ZM41.4844 7.1875L44.2969 7.1875Q45.3906 7.1875 46.1719 7.96875Q46.9531 8.75 46.9531 9.84375L46.9531 11.4844L41.4844 11.4844L41.4844 7.1875ZM65.3125 34.0625L62.5781 34.0625Q61.4063 34.0625 60.6641 33.3203Q59.9219 32.5781 59.9219 31.4063L59.9219 20.7813Q59.9219 18.9063 58.7891 18.0469Q57.6563 17.1875 56.25 17.1875Q54.8438 17.1875 53.75 18.0469Q52.6563 18.9063 52.6563 20.7813L52.6563 34.0625L47.1875 34.0625L47.1875 21.875Q47.1875 16.5625 49.9609 14.7656Q52.7344 12.9688 56.0938 12.8125Q59.5313 12.8125 62.4219 14.6094Q65.3125 16.4063 65.3125 21.875L65.3125 34.0625ZM80.625 27.6563L84.5313 27.6563Q83.6719 30.9375 81.25 32.6563Q78.8281 34.4531 75.1563 34.4531Q70.7031 34.4531 68.2031 31.5625Q65.7031 28.75 65.7031 23.5156Q65.7031 18.5156 68.125 15.7031Q70.625 12.8125 75.0781 12.8125Q79.7656 12.8125 82.3438 15.625Q84.8438 18.5156 84.8438 23.6719Q84.8438 23.9844 84.8438 24.2188Q84.8438 24.4531 84.8438 24.5313Q84.8438 24.9219 84.7656 25.0781L71.25 25.0781Q71.3281 27.5 72.4219 28.6719Q73.4375 29.9219 75.4688 29.9219Q76.7969 29.9219 77.7344 29.375Q77.9688 29.2969 78.1641 29.1016Q78.3594 28.9063 78.5938 28.6719Q78.6719 28.4375 79.1797 28.0469Q79.6875 27.6563 80.625 27.6563ZM71.25 21.5625L79.2188 21.5625Q79.0625 19.4531 78.125 18.4375Q77.1094 17.3438 75.2344 17.3438Q73.5156 17.3438 72.4219 18.4375Q71.3281 19.5313 71.25 21.5625ZM100.313 7.10938L100.313 23.9063Q100.313 27.0313 101.484 28.5156Q102.734 29.9219 105.469 29.9219Q108.125 29.9219 109.453 28.5156Q110.703 27.1094 110.703 23.9063L110.703 7.10938L116.25 7.10938L116.25 24.5313Q116.25 29.5313 113.438 32.1094Q110.859 34.6875 105.469 34.6875Q100.078 34.6875 97.5 32.1094Q94.6875 29.5313 94.6875 24.5313L94.6875 10.0781Q94.6875 8.90625 95.5078 8.00781Q96.3281 7.10938 97.5 7.10938L100.313 7.10938ZM117.266 34.0625L117.266 10Q117.266 8.82813 118.086 8.00781Q118.906 7.1875 120.078 7.1875L122.813 7.1875L122.813 34.0625L117.266 34.0625Z" />
    </g>
  </g>
</svg>