<svg id="visual" viewBox="0 0 900 600" width="900" height="600" xmlns="http://www.w3.org/2000/svg" xmlns:xlink="http://www.w3.org/1999/xlink" version="1.1"><rect x="0" y="0" width="900" height="600" fill="#640070"></rect><g transform="translate(459.49968559598506 287.89592894254656)"><path d="M263.7 -356.3C344.4 -304.3 414.2 -230.8 399.7 -157.7C385.1 -84.6 286.2 -11.9 246.5 70.7C206.7 153.3 226.2 245.7 195 323.1C163.8 400.4 81.9 462.7 9.9 449.1C-62.1 435.5 -124.2 346 -179.1 276.3C-233.9 206.6 -281.5 156.8 -332.2 87.4C-383 18.1 -436.9 -70.7 -416 -135.3C-395.2 -199.9 -299.6 -240.3 -217.8 -291.9C-136 -343.5 -68 -406.2 11.8 -422.4C91.5 -438.6 183 -408.2 263.7 -356.3" fill="none" stroke="#9d30a6" stroke-width="6"></path></g></svg>