<svg id="visual" viewBox="0 0 900 600" width="900" height="600" xmlns="http://www.w3.org/2000/svg" xmlns:xlink="http://www.w3.org/1999/xlink" version="1.1"><rect x="0" y="0" width="900" height="600" fill="#001220"></rect><defs><linearGradient id="grad1_0" x1="33.3%" y1="0%" x2="100%" y2="100%"><stop offset="20%" stop-color="#3f004e" stop-opacity="1"></stop><stop offset="80%" stop-color="#3f004e" stop-opacity="1"></stop></linearGradient></defs><defs><linearGradient id="grad1_1" x1="33.3%" y1="0%" x2="100%" y2="100%"><stop offset="20%" stop-color="#3f004e" stop-opacity="1"></stop><stop offset="80%" stop-color="#28104c" stop-opacity="1"></stop></linearGradient></defs><defs><linearGradient id="grad1_2" x1="33.3%" y1="0%" x2="100%" y2="100%"><stop offset="20%" stop-color="#121645" stop-opacity="1"></stop><stop offset="80%" stop-color="#28104c" stop-opacity="1"></stop></linearGradient></defs><defs><linearGradient id="grad1_3" x1="33.3%" y1="0%" x2="100%" y2="100%"><stop offset="20%" stop-color="#121645" stop-opacity="1"></stop><stop offset="80%" stop-color="#00173a" stop-opacity="1"></stop></linearGradient></defs><defs><linearGradient id="grad1_4" x1="33.3%" y1="0%" x2="100%" y2="100%"><stop offset="20%" stop-color="#00152e" stop-opacity="1"></stop><stop offset="80%" stop-color="#00173a" stop-opacity="1"></stop></linearGradient></defs><defs><linearGradient id="grad1_5" x1="33.3%" y1="0%" x2="100%" y2="100%"><stop offset="20%" stop-color="#00152e" stop-opacity="1"></stop><stop offset="80%" stop-color="#001220" stop-opacity="1"></stop></linearGradient></defs><defs><linearGradient id="grad2_0" x1="0%" y1="0%" x2="66.7%" y2="100%"><stop offset="20%" stop-color="#3f004e" stop-opacity="1"></stop><stop offset="80%" stop-color="#3f004e" stop-opacity="1"></stop></linearGradient></defs><defs><linearGradient id="grad2_1" x1="0%" y1="0%" x2="66.7%" y2="100%"><stop offset="20%" stop-color="#28104c" stop-opacity="1"></stop><stop offset="80%" stop-color="#3f004e" stop-opacity="1"></stop></linearGradient></defs><defs><linearGradient id="grad2_2" x1="0%" y1="0%" x2="66.7%" y2="100%"><stop offset="20%" stop-color="#28104c" stop-opacity="1"></stop><stop offset="80%" stop-color="#121645" stop-opacity="1"></stop></linearGradient></defs><defs><linearGradient id="grad2_3" x1="0%" y1="0%" x2="66.7%" y2="100%"><stop offset="20%" stop-color="#00173a" stop-opacity="1"></stop><stop offset="80%" stop-color="#121645" stop-opacity="1"></stop></linearGradient></defs><defs><linearGradient id="grad2_4" x1="0%" y1="0%" x2="66.7%" y2="100%"><stop offset="20%" stop-color="#00173a" stop-opacity="1"></stop><stop offset="80%" stop-color="#00152e" stop-opacity="1"></stop></linearGradient></defs><defs><linearGradient id="grad2_5" x1="0%" y1="0%" x2="66.7%" y2="100%"><stop offset="20%" stop-color="#001220" stop-opacity="1"></stop><stop offset="80%" stop-color="#00152e" stop-opacity="1"></stop></linearGradient></defs><g transform="translate(900, 0)"><path d="M0 324.5C-20.2 308.6 -40.5 292.7 -66.8 292.5C-93 292.3 -125.4 307.7 -140.8 292.4C-156.2 277 -154.7 230.7 -165.8 208C-177 185.2 -200.7 185.9 -221.3 176.4C-241.8 167 -259.1 147.5 -261.3 125.8C-263.4 104.1 -250.4 80.3 -258.4 59C-266.4 37.6 -295.4 18.8 -324.5 0L0 0Z" fill="#001427"></path><path d="M0 270.4C-16.9 257.2 -33.7 243.9 -55.6 243.7C-77.5 243.6 -104.5 256.5 -117.3 243.6C-130.2 230.8 -128.9 192.3 -138.2 173.3C-147.5 154.3 -167.3 154.9 -184.4 147C-201.5 139.2 -216 122.9 -217.7 104.9C-219.5 86.8 -208.6 66.9 -215.3 49.1C-222 31.4 -246.2 15.7 -270.4 0L0 0Z" fill="#001634"></path><path d="M0 216.3C-13.5 205.7 -27 195.1 -44.5 195C-62 194.8 -83.6 205.2 -93.9 194.9C-104.1 184.7 -103.1 153.8 -110.6 138.6C-118 123.5 -133.8 123.9 -147.5 117.6C-161.2 111.4 -172.8 98.3 -174.2 83.9C-175.6 69.4 -166.9 53.5 -172.2 39.3C-177.6 25.1 -197 12.5 -216.3 0L0 0Z" fill="#061740"></path><path d="M0 162.2C-10.1 154.3 -20.2 146.3 -33.4 146.2C-46.5 146.1 -62.7 153.9 -70.4 146.2C-78.1 138.5 -77.4 115.4 -82.9 104C-88.5 92.6 -100.4 92.9 -110.6 88.2C-120.9 83.5 -129.6 73.8 -130.6 62.9C-131.7 52.1 -125.2 40.1 -129.2 29.5C-133.2 18.8 -147.7 9.4 -162.2 0L0 0Z" fill="#1d1449"></path><path d="M0 108.2C-6.7 102.9 -13.5 97.6 -22.3 97.5C-31 97.4 -41.8 102.6 -46.9 97.5C-52.1 92.3 -51.6 76.9 -55.3 69.3C-59 61.7 -66.9 62 -73.8 58.8C-80.6 55.7 -86.4 49.2 -87.1 41.9C-87.8 34.7 -83.5 26.8 -86.1 19.7C-88.8 12.5 -98.5 6.3 -108.2 0L0 0Z" fill="#340a4e"></path><path d="M0 54.1C-3.4 51.4 -6.7 48.8 -11.1 48.7C-15.5 48.7 -20.9 51.3 -23.5 48.7C-26 46.2 -25.8 38.5 -27.6 34.7C-29.5 30.9 -33.5 31 -36.9 29.4C-40.3 27.8 -43.2 24.6 -43.5 21C-43.9 17.4 -41.7 13.4 -43.1 9.8C-44.4 6.3 -49.2 3.1 -54.1 0L0 0Z" fill="#3f004e"></path></g><g transform="translate(0, 600)"><path d="M0 -324.5C25.5 -322.2 51.1 -320 69.4 -304.2C87.8 -288.4 99 -259 121.1 -251.4C143.1 -243.7 176 -257.7 202.3 -253.7C228.7 -249.7 248.4 -227.7 252.5 -201.4C256.6 -175 245.1 -144.3 255.9 -123.2C266.7 -102.2 299.7 -90.8 314.9 -71.9C330.1 -53 327.3 -26.5 324.5 0L0 0Z" fill="#001427"></path><path d="M0 -270.4C21.3 -268.5 42.5 -266.6 57.9 -253.5C73.2 -240.3 82.5 -215.9 100.9 -209.5C119.3 -203.1 146.7 -214.7 168.6 -211.4C190.5 -208.1 207 -189.8 210.4 -167.8C213.9 -145.9 204.2 -120.2 213.2 -102.7C222.2 -85.1 249.8 -75.7 262.4 -59.9C275 -44.1 272.7 -22.1 270.4 0L0 0Z" fill="#001634"></path><path d="M0 -216.3C17 -214.8 34 -213.3 46.3 -202.8C58.5 -192.3 66 -172.7 80.7 -167.6C95.4 -162.5 117.3 -171.8 134.9 -169.1C152.4 -166.5 165.6 -151.8 168.4 -134.3C171.1 -116.7 163.4 -96.2 170.6 -82.1C177.8 -68.1 199.8 -60.5 209.9 -47.9C220 -35.3 218.2 -17.7 216.3 0L0 0Z" fill="#061740"></path><path d="M0 -162.2C12.8 -161.1 25.5 -160 34.7 -152.1C43.9 -144.2 49.5 -129.5 60.5 -125.7C71.6 -121.8 88 -128.8 101.2 -126.9C114.3 -124.9 124.2 -113.9 126.3 -100.7C128.3 -87.5 122.5 -72.1 127.9 -61.6C133.3 -51.1 149.9 -45.4 157.5 -35.9C165 -26.5 163.6 -13.2 162.2 0L0 0Z" fill="#1d1449"></path><path d="M0 -108.2C8.5 -107.4 17 -106.7 23.1 -101.4C29.3 -96.1 33 -86.3 40.4 -83.8C47.7 -81.2 58.7 -85.9 67.4 -84.6C76.2 -83.2 82.8 -75.9 84.2 -67.1C85.5 -58.3 81.7 -48.1 85.3 -41.1C88.9 -34.1 99.9 -30.3 105 -24C110 -17.7 109.1 -8.8 108.2 0L0 0Z" fill="#340a4e"></path><path d="M0 -54.1C4.3 -53.7 8.5 -53.3 11.6 -50.7C14.6 -48.1 16.5 -43.2 20.2 -41.9C23.9 -40.6 29.3 -42.9 33.7 -42.3C38.1 -41.6 41.4 -38 42.1 -33.6C42.8 -29.2 40.8 -24 42.6 -20.5C44.4 -17 50 -15.1 52.5 -12C55 -8.8 54.5 -4.4 54.1 0L0 0Z" fill="#3f004e"></path></g></svg>