<svg id="visual" viewBox="0 0 960 540" width="960" height="540" xmlns="http://www.w3.org/2000/svg" xmlns:xlink="http://www.w3.org/1999/xlink" version="1.1"><path d="M0 104L26.7 103C53.3 102 106.7 100 160 100C213.3 100 266.7 102 320 99.3C373.3 96.7 426.7 89.3 480 83C533.3 76.7 586.7 71.3 640 69.5C693.3 67.7 746.7 69.3 800 75.7C853.3 82 906.7 93 933.3 98.5L960 104L960 0L933.3 0C906.7 0 853.3 0 800 0C746.7 0 693.3 0 640 0C586.7 0 533.3 0 480 0C426.7 0 373.3 0 320 0C266.7 0 213.3 0 160 0C106.7 0 53.3 0 26.7 0L0 0Z" fill="#8a2be2"></path><path d="M0 233L26.7 228.5C53.3 224 106.7 215 160 215C213.3 215 266.7 224 320 220.5C373.3 217 426.7 201 480 200.2C533.3 199.3 586.7 213.7 640 219.8C693.3 226 746.7 224 800 222.2C853.3 220.3 906.7 218.7 933.3 217.8L960 217L960 102L933.3 96.5C906.7 91 853.3 80 800 73.7C746.7 67.3 693.3 65.7 640 67.5C586.7 69.3 533.3 74.7 480 81C426.7 87.3 373.3 94.7 320 97.3C266.7 100 213.3 98 160 98C106.7 98 53.3 100 26.7 101L0 102Z" fill="#a258e4"></path><path d="M0 298L26.7 289.8C53.3 281.7 106.7 265.3 160 266.2C213.3 267 266.7 285 320 286C373.3 287 426.7 271 480 264.8C533.3 258.7 586.7 262.3 640 265C693.3 267.7 746.7 269.3 800 271C853.3 272.7 906.7 274.3 933.3 275.2L960 276L960 215L933.3 215.8C906.7 216.7 853.3 218.3 800 220.2C746.7 222 693.3 224 640 217.8C586.7 211.7 533.3 197.3 480 198.2C426.7 199 373.3 215 320 218.5C266.7 222 213.3 213 160 213C106.7 213 53.3 222 26.7 226.5L0 231Z" fill="#b77de5"></path><path d="M0 357L26.7 347.2C53.3 337.3 106.7 317.7 160 317.7C213.3 317.7 266.7 337.3 320 341C373.3 344.7 426.7 332.3 480 326.2C533.3 320 586.7 320 640 319C693.3 318 746.7 316 800 319.5C853.3 323 906.7 332 933.3 336.5L960 341L960 274L933.3 273.2C906.7 272.3 853.3 270.7 800 269C746.7 267.3 693.3 265.7 640 263C586.7 260.3 533.3 256.7 480 262.8C426.7 269 373.3 285 320 284C266.7 283 213.3 265 160 264.2C106.7 263.3 53.3 279.7 26.7 287.8L0 296Z" fill="#c9a1e7"></path><path d="M0 476L26.7 472.5C53.3 469 106.7 462 160 462C213.3 462 266.7 469 320 470.7C373.3 472.3 426.7 468.7 480 469.7C533.3 470.7 586.7 476.3 640 479.2C693.3 482 746.7 482 800 480.2C853.3 478.3 906.7 474.7 933.3 472.8L960 471L960 339L933.3 334.5C906.7 330 853.3 321 800 317.5C746.7 314 693.3 316 640 317C586.7 318 533.3 318 480 324.2C426.7 330.3 373.3 342.7 320 339C266.7 335.3 213.3 315.7 160 315.7C106.7 315.7 53.3 335.3 26.7 345.2L0 355Z" fill="#d9c4e7"></path><path d="M0 541L26.7 541C53.3 541 106.7 541 160 541C213.3 541 266.7 541 320 541C373.3 541 426.7 541 480 541C533.3 541 586.7 541 640 541C693.3 541 746.7 541 800 541C853.3 541 906.7 541 933.3 541L960 541L960 469L933.3 470.8C906.7 472.7 853.3 476.3 800 478.2C746.7 480 693.3 480 640 477.2C586.7 474.3 533.3 468.7 480 467.7C426.7 466.7 373.3 470.3 320 468.7C266.7 467 213.3 460 160 460C106.7 460 53.3 467 26.7 470.5L0 474Z" fill="#e7e7e7"></path></svg>