<svg id="visual" viewBox="0 0 960 540" width="960" height="540" xmlns="http://www.w3.org/2000/svg" xmlns:xlink="http://www.w3.org/1999/xlink" version="1.1"><path d="M0 28L17.8 28.8C35.7 29.7 71.3 31.3 106.8 35.8C142.3 40.3 177.7 47.7 213.2 46.8C248.7 46 284.3 37 320 32.5C355.7 28 391.3 28 426.8 28C462.3 28 497.7 28 533.2 30.7C568.7 33.3 604.3 38.7 640 45C675.7 51.3 711.3 58.7 746.8 61.3C782.3 64 817.7 62 853.2 55.7C888.7 49.3 924.3 38.7 942.2 33.3L960 28L960 0L942.2 0C924.3 0 888.7 0 853.2 0C817.7 0 782.3 0 746.8 0C711.3 0 675.7 0 640 0C604.3 0 568.7 0 533.2 0C497.7 0 462.3 0 426.8 0C391.3 0 355.7 0 320 0C284.3 0 248.7 0 213.2 0C177.7 0 142.3 0 106.8 0C71.3 0 35.7 0 17.8 0L0 0Z" fill="#cc8e5c"></path><path d="M0 60L17.8 61.8C35.7 63.7 71.3 67.3 106.8 70.2C142.3 73 177.7 75 213.2 75C248.7 75 284.3 73 320 68.5C355.7 64 391.3 57 426.8 53.5C462.3 50 497.7 50 533.2 55.3C568.7 60.7 604.3 71.3 640 81.2C675.7 91 711.3 100 746.8 99.2C782.3 98.3 817.7 87.7 853.2 82.3C888.7 77 924.3 77 942.2 77L960 77L960 26L942.2 31.3C924.3 36.7 888.7 47.3 853.2 53.7C817.7 60 782.3 62 746.8 59.3C711.3 56.7 675.7 49.3 640 43C604.3 36.7 568.7 31.3 533.2 28.7C497.7 26 462.3 26 426.8 26C391.3 26 355.7 26 320 30.5C284.3 35 248.7 44 213.2 44.8C177.7 45.7 142.3 38.3 106.8 33.8C71.3 29.3 35.7 27.7 17.8 26.8L0 26Z" fill="#c5834d"></path><path d="M0 158L17.8 150.7C35.7 143.3 71.3 128.7 106.8 120.5C142.3 112.3 177.7 110.7 213.2 110.7C248.7 110.7 284.3 112.3 320 115C355.7 117.7 391.3 121.3 426.8 118.7C462.3 116 497.7 107 533.2 107C568.7 107 604.3 116 640 128.7C675.7 141.3 711.3 157.7 746.8 164C782.3 170.3 817.7 166.7 853.2 155.8C888.7 145 924.3 127 942.2 118L960 109L960 75L942.2 75C924.3 75 888.7 75 853.2 80.3C817.7 85.7 782.3 96.3 746.8 97.2C711.3 98 675.7 89 640 79.2C604.3 69.3 568.7 58.7 533.2 53.3C497.7 48 462.3 48 426.8 51.5C391.3 55 355.7 62 320 66.5C284.3 71 248.7 73 213.2 73C177.7 73 142.3 71 106.8 68.2C71.3 65.3 35.7 61.7 17.8 59.8L0 58Z" fill="#bf783e"></path><path d="M0 271L17.8 260.2C35.7 249.3 71.3 227.7 106.8 220.5C142.3 213.3 177.7 220.7 213.2 218C248.7 215.3 284.3 202.7 320 193.7C355.7 184.7 391.3 179.3 426.8 184.7C462.3 190 497.7 206 533.2 213.2C568.7 220.3 604.3 218.7 640 220.5C675.7 222.3 711.3 227.7 746.8 233C782.3 238.3 817.7 243.7 853.2 238.3C888.7 233 924.3 217 942.2 209L960 201L960 107L942.2 116C924.3 125 888.7 143 853.2 153.8C817.7 164.7 782.3 168.3 746.8 162C711.3 155.7 675.7 139.3 640 126.7C604.3 114 568.7 105 533.2 105C497.7 105 462.3 114 426.8 116.7C391.3 119.3 355.7 115.7 320 113C284.3 110.3 248.7 108.7 213.2 108.7C177.7 108.7 142.3 110.3 106.8 118.5C71.3 126.7 35.7 141.3 17.8 148.7L0 156Z" fill="#b86d2f"></path><path d="M0 384L17.8 367C35.7 350 71.3 316 106.8 309.8C142.3 303.7 177.7 325.3 213.2 328C248.7 330.7 284.3 314.3 320 312.5C355.7 310.7 391.3 323.3 426.8 324.2C462.3 325 497.7 314 533.2 314C568.7 314 604.3 325 640 324.2C675.7 323.3 711.3 310.7 746.8 315.2C782.3 319.7 817.7 341.3 853.2 339.5C888.7 337.7 924.3 312.3 942.2 299.7L960 287L960 199L942.2 207C924.3 215 888.7 231 853.2 236.3C817.7 241.7 782.3 236.3 746.8 231C711.3 225.7 675.7 220.3 640 218.5C604.3 216.7 568.7 218.3 533.2 211.2C497.7 204 462.3 188 426.8 182.7C391.3 177.3 355.7 182.7 320 191.7C284.3 200.7 248.7 213.3 213.2 216C177.7 218.7 142.3 211.3 106.8 218.5C71.3 225.7 35.7 247.3 17.8 258.2L0 269Z" fill="#ad6326"></path><path d="M0 492L17.8 482.2C35.7 472.3 71.3 452.7 106.8 445.5C142.3 438.3 177.7 443.7 213.2 448.2C248.7 452.7 284.3 456.3 320 451C355.7 445.7 391.3 431.3 426.8 433.2C462.3 435 497.7 453 533.2 455.7C568.7 458.3 604.3 445.7 640 444.7C675.7 443.7 711.3 454.3 746.8 460.7C782.3 467 817.7 469 853.2 474.5C888.7 480 924.3 489 942.2 493.5L960 498L960 285L942.2 297.7C924.3 310.3 888.7 335.7 853.2 337.5C817.7 339.3 782.3 317.7 746.8 313.2C711.3 308.7 675.7 321.3 640 322.2C604.3 323 568.7 312 533.2 312C497.7 312 462.3 323 426.8 322.2C391.3 321.3 355.7 308.7 320 310.5C284.3 312.3 248.7 328.7 213.2 326C177.7 323.3 142.3 301.7 106.8 307.8C71.3 314 35.7 348 17.8 365L0 382Z" fill="#9f5b23"></path><path d="M0 525L17.8 519.5C35.7 514 71.3 503 106.8 502C142.3 501 177.7 510 213.2 511.8C248.7 513.7 284.3 508.3 320 503.8C355.7 499.3 391.3 495.7 426.8 496.7C462.3 497.7 497.7 503.3 533.2 504.3C568.7 505.3 604.3 501.7 640 502.5C675.7 503.3 711.3 508.7 746.8 509.5C782.3 510.3 817.7 506.7 853.2 508.5C888.7 510.3 924.3 517.7 942.2 521.3L960 525L960 496L942.2 491.5C924.3 487 888.7 478 853.2 472.5C817.7 467 782.3 465 746.8 458.7C711.3 452.3 675.7 441.7 640 442.7C604.3 443.7 568.7 456.3 533.2 453.7C497.7 451 462.3 433 426.8 431.2C391.3 429.3 355.7 443.7 320 449C284.3 454.3 248.7 450.7 213.2 446.2C177.7 441.7 142.3 436.3 106.8 443.5C71.3 450.7 35.7 470.3 17.8 480.2L0 490Z" fill="#915421"></path><path d="M0 541L17.8 541C35.7 541 71.3 541 106.8 541C142.3 541 177.7 541 213.2 541C248.7 541 284.3 541 320 541C355.7 541 391.3 541 426.8 541C462.3 541 497.7 541 533.2 541C568.7 541 604.3 541 640 541C675.7 541 711.3 541 746.8 541C782.3 541 817.7 541 853.2 541C888.7 541 924.3 541 942.2 541L960 541L960 523L942.2 519.3C924.3 515.7 888.7 508.3 853.2 506.5C817.7 504.7 782.3 508.3 746.8 507.5C711.3 506.7 675.7 501.3 640 500.5C604.3 499.7 568.7 503.3 533.2 502.3C497.7 501.3 462.3 495.7 426.8 494.7C391.3 493.7 355.7 497.3 320 501.8C284.3 506.3 248.7 511.7 213.2 509.8C177.7 508 142.3 499 106.8 500C71.3 501 35.7 512 17.8 517.5L0 523Z" fill="#844c1e"></path></svg>